<?xml version="1.0" encoding="UTF-8"?>
<svg width="26px" height="31px" viewBox="0 0 26 31" version="1.1" xmlns="http://www.w3.org/2000/svg" xmlns:xlink="http://www.w3.org/1999/xlink">
    <!-- Generator: Sketch 51.3 (57544) - http://www.bohemiancoding.com/sketch -->
    <title>Discord-Logo-Black</title>
    <desc>Created with Sketch.</desc>
    <defs></defs>
    <g id="Page-1" stroke="none" stroke-width="1" fill="none" fill-rule="evenodd">
        <g id="Desktop-home" transform="translate(-121.000000, -375.000000)" fill-rule="nonzero">
            <g id="Group-7" transform="translate(121.000000, 194.000000)">
                <g id="Discord-Logo-Black" transform="translate(1.000000, 182.000000)">
                    <path d="M18.6120932,23.2444878 L19.0267859,24.692 L2.81142857,24.692 C0.983078011,24.692 -0.5,23.2039285 -0.5,21.3668571 L-0.5,2.82514286 C-0.5,0.98807154 0.983078011,-0.5 2.81142857,-0.5 L21.1885714,-0.5 C23.016922,-0.5 24.5,0.98807154 24.5,2.82514286 L24.5,28.5376955 L23.6689011,27.803236 L20.711785,25.1897935 L19.051555,23.65305 L18.6120932,23.2444878 Z" id="Path" stroke="#FF3C64" fill="#181137"></path>
                    <path d="M15.8229163,17.0382089 C15.7328944,16.9278959 15.64443,16.8186871 15.5593487,16.712673 C15.5350784,16.6824126 15.5350784,16.6824126 15.5108584,16.6521362 C15.445861,16.570681 15.445861,16.570681 15.3821557,16.4901779 L15.1256188,17.2811756 C15.3702512,17.212081 15.6026197,17.1306886 15.8229163,17.0382089 Z M8.35064478,17.0026824 C8.5656114,17.0967084 8.79250703,17.1800698 9.03152927,17.2515883 L8.78241576,16.4627493 C8.69940472,16.5676673 8.69940472,16.5676673 8.61419634,16.6745722 C8.59866732,16.6940195 8.59866732,16.6940195 8.58312476,16.7134625 C8.50785182,16.8075999 8.42993399,16.9045087 8.35064478,17.0026824 Z M8.02889219,17.3989238 C7.95907436,17.4844806 7.90428154,17.5513519 7.86978726,17.5933044 L8.27182917,17.4111078 C8.18972345,17.4085071 8.10874795,17.4044345 8.02889219,17.3989238 Z M4.5739061,15.676814 C4.54078245,15.631507 4.51818488,15.5970495 4.50578789,15.57565 L4.57314286,15.8262857 C4.57314286,15.776453 4.57339802,15.7266285 4.5739061,15.676814 Z M19.5906515,15.6754658 C19.5911688,15.7257296 19.5914286,15.7760034 19.5914286,15.8262857 L19.6600796,15.573426 C19.6474184,15.5950245 19.6243805,15.6297826 19.5906515,15.6754658 Z M16.1195854,17.3990893 C16.0404882,17.4045163 15.9603057,17.4085334 15.879028,17.4111078 L16.278236,17.5898888 C16.2438185,17.5487791 16.189196,17.483191 16.1195854,17.3990893 Z" id="Shape" stroke="#FF3C64" fill="#FFDDCF"></path>
                    <path d="M9.51771429,11.5062857 C8.736,11.5062857 8.11885714,12.192 8.11885714,13.0285714 C8.11885714,13.8651429 8.74971429,14.5508571 9.51771429,14.5508571 C10.2994286,14.5508571 10.9165714,13.8651429 10.9165714,13.0285714 C10.9302857,12.192 10.2994286,11.5062857 9.51771429,11.5062857 Z M14.5234286,11.5062857 C13.7417143,11.5062857 13.1245714,12.192 13.1245714,13.0285714 C13.1245714,13.8651429 13.7554286,14.5508571 14.5234286,14.5508571 C15.3051429,14.5508571 15.9222857,13.8651429 15.9222857,13.0285714 C15.9222857,12.192 15.3051429,11.5062857 14.5234286,11.5062857 Z" id="Shape" fill="#FF3C64"></path>
                </g>
            </g>
        </g>
    </g>
</svg>