<?xml version="1.0" encoding="UTF-8"?>
<svg width="110px" height="31px" viewBox="0 0 110 31" version="1.1" xmlns="http://www.w3.org/2000/svg" xmlns:xlink="http://www.w3.org/1999/xlink">
    <!-- Generator: Sketch 51.3 (57544) - http://www.bohemiancoding.com/sketch -->
    <title>Discord-Logo+Wordmark-Black</title>
    <desc>Created with Sketch.</desc>
    <defs></defs>
    <g id="Page-1" stroke="none" stroke-width="1" fill="none" fill-rule="evenodd">
        <g id="Desktop-home" transform="translate(-213.000000, -5410.000000)" fill="#FFDDCF" fill-rule="nonzero">
            <g id="Footer-content" transform="translate(171.000000, 4928.000000)">
                <g id="Discord-Logo+Wordmark-Black" transform="translate(42.000000, 482.000000)">
                    <path d="M16.2494343,12.5149701 C15.391642,12.5149701 14.7144376,13.248503 14.7144376,14.1616766 C14.7144376,15.0748503 15.406691,15.8083832 16.2494343,15.8083832 C17.1072267,15.8083832 17.7844311,15.0748503 17.7844311,14.1616766 C17.7844311,13.248503 17.0921777,12.5149701 16.2494343,12.5149701 Z M10.7565537,12.5149701 C9.89876135,12.5149701 9.22155689,13.248503 9.22155689,14.1616766 C9.22155689,15.0748503 9.91381034,15.8083832 10.7565537,15.8083832 C11.614346,15.8083832 12.2915505,15.0748503 12.2915505,14.1616766 C12.3065995,13.248503 11.614346,12.5149701 10.7565537,12.5149701 Z" id="Shape"></path>
                    <path d="M23.4219956,0 L3.10777288,0 C1.39470783,0 0,1.40572108 0,3.13231329 L0,23.6069465 C0,25.3335387 1.39470783,26.7392598 3.10777288,26.7392598 L20.2990628,26.7392598 L19.4955899,23.9430972 L21.4360529,25.7460873 L23.2703969,27.4421203 L26.5449283,30.2994012 L26.5449283,3.13231329 C26.5297685,1.40572108 25.1350606,0 23.4219956,0 Z M17.5702867,19.7870522 C17.5702867,19.7870522 17.0245314,19.1300304 16.5697354,18.5646861 C18.5556781,17.9993417 19.3136714,16.761696 19.3136714,16.761696 C18.6921169,17.1742446 18.100882,17.4645565 17.5702867,17.663191 C16.8122933,17.9840621 16.0846196,18.1826966 15.3721058,18.3202128 C13.9167585,18.5952452 12.5826902,18.5188473 11.4457001,18.3049332 C10.5815877,18.1368579 9.83875413,17.9076642 9.21719956,17.6479114 C8.8685226,17.5103952 8.48952591,17.3423199 8.11052922,17.1284058 C8.06504961,17.0978467 8.01957001,17.0825671 7.97409041,17.0520079 C7.94377067,17.0367284 7.9286108,17.0214488 7.91345094,17.0214488 C7.64057332,16.868653 7.48897464,16.761696 7.48897464,16.761696 C7.48897464,16.761696 8.21664829,17.9687826 10.1419515,18.5494065 C9.68715546,19.1300304 9.12624035,19.8023318 9.12624035,19.8023318 C5.77590959,19.6953748 4.50248071,17.4951157 4.50248071,17.4951157 C4.50248071,12.6209306 6.68550165,8.66352016 6.68550165,8.66352016 C8.8685226,7.02860542 10.9302646,7.07444415 10.9302646,7.07444415 L11.0818633,7.25779908 C8.3530871,8.0370575 7.10997795,9.24414409 7.10997795,9.24414409 C7.10997795,9.24414409 7.44349504,9.06078916 8.00441014,8.81631593 C9.62651599,8.09817581 10.9151047,7.91482089 11.4457001,7.85370258 C11.5366593,7.838423 11.6124587,7.82314343 11.7034179,7.82314343 C12.6281698,7.70090681 13.6742007,7.67034766 14.7657111,7.79258427 C16.2058986,7.96065962 17.7522051,8.38848777 19.3288313,9.24414409 C19.3288313,9.24414409 18.1312018,8.09817581 15.5540243,7.31891738 L15.7662624,7.07444415 C15.7662624,7.07444415 17.8431643,7.02860542 20.0110254,8.66352016 C20.0110254,8.66352016 22.1940463,12.6209306 22.1940463,17.4951157 C22.1940463,17.4798361 20.9206174,19.6800952 17.5702867,19.7870522 Z M40.4616869,6.53965896 L35.4286108,6.53965896 L35.4286108,12.2389412 L38.7789416,15.279577 L38.7789416,9.74837013 L40.567806,9.74837013 C41.704796,9.74837013 42.2657111,10.2984349 42.2657111,11.1846504 L42.2657111,15.4170932 C42.2657111,16.3033087 41.7351158,16.8992122 40.567806,16.8992122 L35.4134509,16.8992122 L35.4134509,20.1233302 L40.446527,20.1232029 C43.1449835,20.1384825 45.6766814,18.7786001 45.6766814,15.6615664 L45.6766814,11.1082525 C45.6918412,7.93010046 43.1601433,6.53965896 40.4616869,6.53965896 Z M66.8398567,15.6615664 L66.8398567,10.9860159 C66.8398567,9.3052624 69.8415105,8.92327297 70.7511025,10.6040264 L73.5253583,9.47333774 C72.4338479,7.05916458 70.4479052,6.35630403 68.7954796,6.35630403 C66.0970232,6.35630403 63.4288864,7.93010046 63.4288864,10.9860159 L63.4288864,15.6615664 C63.4288864,18.748041 66.0970232,20.2912783 68.7348401,20.2912783 C70.4327453,20.2912783 72.4641676,19.4509015 73.5859978,17.2506424 L70.6146637,15.8754805 C69.8869901,17.7548685 66.8398567,17.2964812 66.8398567,15.6615664 Z M57.6681367,11.6277581 C56.6221058,11.3985644 55.9247519,11.016575 55.8792723,10.3595532 C55.9399118,8.78575678 58.3503308,8.72463847 59.7601985,10.2373166 L61.988699,8.51072439 C60.5939912,6.79941177 59.0173649,6.34102446 57.3952591,6.34102446 C54.9242007,6.34102446 52.5289416,7.74674554 52.5289416,10.4053919 C52.5289416,12.9876405 54.4997244,14.378082 56.6675854,14.7142327 C57.7742558,14.8670284 59.0022051,15.3101362 58.9718853,16.074115 C58.8809261,17.5256748 55.9095921,17.4492769 54.5603638,15.7990826 L52.4076626,17.8312664 C53.6659316,19.4661811 55.3789967,20.2912783 56.9859427,20.2912783 C59.4570011,20.2912783 62.2009372,18.854998 62.3070562,16.2269108 C62.4586549,12.9112426 60.0633958,12.0708658 57.6681367,11.6277581 Z M47.5110254,20.1079233 L50.9068357,20.1079233 L50.9068357,6.53965896 L47.5110254,6.53965896 L47.5110254,20.1079233 Z M104.769846,6.53965896 L99.7367696,6.53965896 L99.7367696,12.2389412 L103.0871,15.279577 L103.0871,9.74837013 L104.875965,9.74837013 C106.012955,9.74837013 106.57387,10.2984349 106.57387,11.1846504 L106.57387,15.4170932 C106.57387,16.3033087 106.043275,16.8992122 104.875965,16.8992122 L99.7216097,16.8992122 L99.7216097,20.1233302 L104.769846,20.1232029 C107.468302,20.1384825 110,18.7786001 110,15.6615664 L110,11.1082525 C110,7.93010046 107.468302,6.53965896 104.769846,6.53965896 Z M80.0744212,6.35630403 C77.2850055,6.35630403 74.5107497,7.88426173 74.5107497,11.016575 L74.5107497,15.6462869 C74.5107497,18.748041 77.3001654,20.3065578 80.1047409,20.3065578 C82.8941566,20.3065578 85.6684123,18.748041 85.6684123,15.6462869 L85.6684123,11.016575 C85.6684123,7.89954131 82.8638368,6.35630403 80.0744212,6.35630403 Z M82.2574421,15.6462869 C82.2574421,16.6241798 81.1659316,17.1284058 80.089581,17.1284058 C78.9980706,17.1284058 77.9065601,16.6547389 77.9065601,15.6462869 L77.9065601,11.016575 C77.9065601,10.0234025 78.9677508,9.48861732 80.0289416,9.48861732 C81.1356119,9.48861732 82.2574421,9.96228421 82.2574421,11.016575 L82.2574421,15.6462869 Z M97.856946,11.016575 C97.7811466,7.838423 95.6284454,6.55493853 92.8541896,6.55493853 L87.4724366,6.55493853 L87.4724366,20.1232029 L90.9137266,20.1232029 L90.9137266,15.8143622 L91.5201213,15.8143622 L94.643054,20.1232029 L98.887817,20.1232029 L95.219129,15.4629319 C96.8412348,14.9434263 97.856946,13.5224256 97.856946,11.016575 Z M92.9148291,12.8501243 L90.9137266,12.8501243 L90.9137266,9.74837013 L92.9148291,9.74837013 C95.0523705,9.74837013 95.0523705,12.8501243 92.9148291,12.8501243 Z" id="Shape"></path>
                </g>
            </g>
        </g>
    </g>
</svg>