<?xml version="1.0" encoding="utf-8"?>
<!-- Generator: Adobe Illustrator 23.0.1, SVG Export Plug-In . SVG Version: 6.00 Build 0)  -->
<svg version="1.1" id="Layer_1" xmlns="http://www.w3.org/2000/svg" xmlns:xlink="http://www.w3.org/1999/xlink" x="0px" y="0px"
	 viewBox="0 0 10.3 18.5" style="enable-background:new 0 0 10.3 18.5;" xml:space="preserve">
<style type="text/css">
	.st0{fill:#FFFBF2;}
</style>
<g id="Page-1">
	<g id="Mobile-home" transform="translate(-329.000000, -3004.000000)">
		<g id="Group" transform="translate(327.000000, 2885.000000)">
			
				<g transform="translate(11.399495, 136.106602) rotate(-45.000000) translate(-11.399495, -136.106602) translate(3.899495, 128.606602)">
				<g id="Shape">
					<g>
						<path id="path-1_1_" d="M1.3,0.8c-0.6,0-1,0.5-1,1c0,0.6,0.5,1,1,1h11.6c0.6,0,1-0.5,1-1V-9.8c0-0.6-0.5-1-1-1
							c-0.6,0-1,0.5-1,1V0.8H1.3z"/>
					</g>
					<g>
						<path class="st0" d="M1.3,0.8c-0.6,0-1,0.5-1,1c0,0.6,0.5,1,1,1h11.6c0.6,0,1-0.5,1-1V-9.8c0-0.6-0.5-1-1-1c-0.6,0-1,0.5-1,1
							V0.8H1.3z"/>
					</g>
				</g>
			</g>
		</g>
	</g>
</g>
</svg>
