<?xml version="1.0" encoding="UTF-8"?>
<svg width="63px" height="59px" viewBox="0 0 63 59" version="1.1" xmlns="http://www.w3.org/2000/svg" xmlns:xlink="http://www.w3.org/1999/xlink">
    <!-- Generator: Sketch 51.3 (57544) - http://www.bohemiancoding.com/sketch -->
    <title>Shape</title>
    <desc>Created with Sketch.</desc>
    <defs>
        <path d="M64.504644,7.15548141 C63.6763467,7.52125763 62.7875957,7.76932287 61.8537985,7.88007087 C62.8072689,7.31104899 63.5371266,6.40850047 63.8830441,5.33634848 C62.9886669,5.86329931 62.0014395,6.24593327 60.9495296,6.45335671 C60.1071853,5.55780782 58.9090316,5 57.5800788,5 C55.0305043,5 52.9632729,7.06019855 52.9632729,9.59970651 C52.9632729,9.9598757 53.0040535,10.3116527 53.0828198,10.6480378 C49.2465072,10.4560062 45.8447335,8.62426661 43.5679732,5.84087119 C43.169986,6.51921182 42.9435786,7.30961975 42.9435786,8.15334942 C42.9435786,9.74966706 43.7592262,11.1581675 44.996763,11.9822176 C44.2401718,11.9570043 43.52859,11.7495809 42.9056295,11.4048035 L42.9056295,11.4622664 C42.9056295,13.6906392 44.4975415,15.550414 46.6083482,15.9736897 C46.2216134,16.0774014 45.8138079,16.1348643 45.3919187,16.1348643 C45.0938052,16.1348643 44.80551,16.1054366 44.5228409,16.0493663 C45.110647,17.8783207 46.8150824,19.2083227 48.8345098,19.2447868 C47.2552475,20.4781134 45.2639509,21.211095 43.1011114,21.211095 C42.7284603,21.211095 42.3613987,21.1886669 42,21.1480251 C44.0433294,22.4556357 46.4691648,23.2180451 49.0763983,23.2180451 C57.5689,23.2180451 62.211042,16.2077557 62.211042,10.1280866 L62.1955608,9.5324588 C63.1025877,8.8877237 63.8872729,8.07767285 64.504644,7.15548141 Z" id="path-1"></path>
        <filter x="-142.2%" y="-164.7%" width="384.4%" height="451.3%" filterUnits="objectBoundingBox" id="filter-2">
            <feMorphology radius="1" operator="dilate" in="SourceAlpha" result="shadowSpreadOuter1"></feMorphology>
            <feOffset dx="0" dy="2" in="shadowSpreadOuter1" result="shadowOffsetOuter1"></feOffset>
            <feGaussianBlur stdDeviation="10" in="shadowOffsetOuter1" result="shadowBlurOuter1"></feGaussianBlur>
            <feComposite in="shadowBlurOuter1" in2="SourceAlpha" operator="out" result="shadowBlurOuter1"></feComposite>
            <feColorMatrix values="0 0 0 0 1   0 0 0 0 0.23693971   0 0 0 0 0.392666299  0 0 0 1 0" type="matrix" in="shadowBlurOuter1"></feColorMatrix>
        </filter>
    </defs>
    <g id="Page-1" stroke="none" stroke-width="1" fill="none" fill-rule="evenodd">
        <g id="Desktop-home" transform="translate(-524.000000, -5397.000000)" fill-rule="nonzero">
            <g id="Footer-content" transform="translate(171.000000, 4928.000000)">
                <g id="Group-6" transform="translate(331.000000, 482.000000)">
                    <g id="Shape">
                        <use fill="black" fill-opacity="1" filter="url(#filter-2)" xlink:href="#path-1"></use>
                        <path stroke="#FF3C64" stroke-width="1" d="M62.7021218,9.78118796 L62.711042,10.1280866 C62.711042,17.3518617 57.0807493,23.7180451 49.0763983,23.7180451 C46.4386955,23.7180451 43.9110556,22.9646053 41.7304907,21.5691721 L39.9207552,20.4110479 L42.0558763,20.6511571 C42.4087746,20.690843 42.7565434,20.711095 43.1011114,20.711095 C44.6714679,20.711095 46.1775065,20.3021343 47.4956919,19.5446546 C45.8805873,19.0781474 44.5717398,17.8356346 44.0468212,16.2023539 L43.786911,15.3936453 L44.4195651,15.5191387 C43.1876673,14.580398 42.4056295,13.1011991 42.4056295,11.4622664 L42.4056295,10.5566098 L43.1477468,10.9673344 C43.2201457,11.0074036 43.2936248,11.0452576 43.368097,11.080857 C42.7774421,10.240045 42.4435786,9.22447658 42.4435786,8.15334942 C42.4435786,7.23791272 42.6848318,6.35805915 43.1367183,5.58785095 L43.5002053,4.96831347 L43.9549902,5.52429921 C46.0723438,8.11281595 49.1264112,9.76905562 52.4875219,10.1024172 C52.4713896,9.93636752 52.4632729,9.76858974 52.4632729,9.59970651 C52.4632729,6.78343518 54.7549821,4.5 57.5800788,4.5 C58.9159271,4.5 60.1700288,5.0120243 61.1117717,5.90769543 C61.9999623,5.70473752 62.8467598,5.36657766 63.6292312,4.90555968 L64.7629188,4.2376115 L64.3588904,5.48987481 C64.185182,6.02827413 63.9235428,6.52991551 63.5893531,6.97659357 C63.8309019,6.89426548 64.0688093,6.80136337 64.3026617,6.6980941 L65.8783859,6.00225404 L64.9201325,7.43363472 C64.3172424,8.33419553 63.5649273,9.13058895 62.7021218,9.78118796 Z" fill="#FFDDCF" fill-rule="evenodd"></path>
                    </g>
                </g>
            </g>
        </g>
    </g>
</svg>