<?xml version="1.0" encoding="UTF-8"?>
<svg width="62px" height="59px" viewBox="0 0 62 59" version="1.1" xmlns="http://www.w3.org/2000/svg" xmlns:xlink="http://www.w3.org/1999/xlink">
    <!-- Generator: Sketch 51.3 (57544) - http://www.bohemiancoding.com/sketch -->
    <title>Twitter</title>
    <desc>Created with Sketch.</desc>
    <defs>
        <path d="M22,50.6334627 C21.1902765,50.9910367 20.3214548,51.2335394 19.4085971,51.341804 C20.3406868,50.7855418 21.0541782,49.9032321 21.3923389,48.855122 C20.5180172,49.3702565 19.5529274,49.7443103 18.5246054,49.9470824 C17.7011498,49.0716153 16.5298636,48.5263158 15.2307112,48.5263158 C12.7383084,48.5263158 10.7174325,50.5403165 10.7174325,53.0228785 C10.7174325,53.3749713 10.7572986,53.71886 10.8342987,54.047702 C7.08401158,53.8599765 3.75851921,52.0693119 1.53281296,49.3483313 C1.14375023,50.0114608 0.922419808,50.7841446 0.922419808,51.6089545 C0.922419808,53.1694763 1.71977732,54.5463926 2.92956361,55.3519642 C2.18993822,55.3273163 1.4943129,55.1245441 0.885321708,54.7874981 L0.885321708,54.8436724 C0.885321708,57.0220762 2.44153667,58.8401473 4.50501063,59.2539315 C4.12694792,59.3553176 3.72828714,59.411492 3.31585836,59.411492 C3.02442978,59.411492 2.74259925,59.3827241 2.46626874,59.3279112 C3.04089386,61.1158531 4.707109,62.4160312 6.68125275,62.4516775 C5.13740382,63.657348 3.19076012,64.3738933 1.07642006,64.3738933 C0.712125347,64.3738933 0.353294695,64.3519682 0,64.3122377 C1.9975098,65.5905264 4.36894832,66.3358396 6.91771719,66.3358396 C15.219783,66.3358396 19.7578297,59.4827489 19.7578297,53.5394102 L19.7426957,52.9571388 C20.6293834,52.3268612 21.3964729,51.5349749 22,50.6334627 Z" id="path-1"></path>
        <filter x="-145.5%" y="-168.4%" width="390.9%" height="459.4%" filterUnits="objectBoundingBox" id="filter-2">
            <feMorphology radius="1" operator="dilate" in="SourceAlpha" result="shadowSpreadOuter1"></feMorphology>
            <feOffset dx="0" dy="2" in="shadowSpreadOuter1" result="shadowOffsetOuter1"></feOffset>
            <feGaussianBlur stdDeviation="10" in="shadowOffsetOuter1" result="shadowBlurOuter1"></feGaussianBlur>
            <feComposite in="shadowBlurOuter1" in2="SourceAlpha" operator="out" result="shadowBlurOuter1"></feComposite>
            <feColorMatrix values="0 0 0 0 1   0 0 0 0 0.984313725   0 0 0 0 0.949019608  0 0 0 1 0" type="matrix" in="shadowBlurOuter1"></feColorMatrix>
        </filter>
    </defs>
    <g id="Page-1" stroke="none" stroke-width="1" fill="none" fill-rule="evenodd">
        <g id="Desktop-home" transform="translate(-104.000000, -455.000000)" fill-rule="nonzero">
            <g id="Group-7" transform="translate(121.000000, 194.000000)">
                <g id="Group-6" transform="translate(3.000000, 231.000000)">
                    <g id="Twitter">
                        <use fill="black" fill-opacity="1" filter="url(#filter-2)" xlink:href="#path-1"></use>
                        <path stroke="#FF3C64" stroke-width="1" d="M20.2492525,53.2057683 L20.2578297,53.5394102 C20.2578297,60.6071059 14.7490985,66.8358396 6.91771719,66.8358396 C4.33700016,66.8358396 1.86394654,66.0986708 -0.269509268,64.7333847 L-2.07924475,63.5752604 L0.0558762731,63.8153697 C0.400452968,63.8541197 0.740005781,63.8738933 1.07642006,63.8738933 C2.60050486,63.8738933 4.06251424,63.4793407 5.34399348,62.7481989 C3.77323055,62.2854999 2.50180327,61.0725962 1.99024899,59.4808987 L1.73033884,58.6721902 L2.32053186,58.789261 C1.13548543,57.8682015 0.385321708,56.4325542 0.385321708,54.8436724 L0.385321708,53.9393043 L1.12743892,54.3500289 C1.18550237,54.3821641 1.2442784,54.4128378 1.30371968,54.4420285 C0.740300974,53.625155 0.422419808,52.6435025 0.422419808,51.6089545 C0.422419808,50.7120418 0.658799784,49.8499609 1.1015581,49.095311 L1.46504507,48.4757736 L1.91982999,49.0317593 C3.98498107,51.5564572 6.96247732,53.1731084 10.2398882,53.5018059 C10.224948,53.3435581 10.2174325,53.1837289 10.2174325,53.0228785 C10.2174325,50.2635579 12.4627813,48.0263158 15.2307112,48.0263158 C16.5374498,48.0263158 17.7643753,48.5264049 18.6865709,49.4013858 C19.5515814,49.2030899 20.3763102,48.8734169 21.1385259,48.4243332 L22.2722135,47.756385 L21.8681851,49.0086483 C21.7017448,49.5245207 21.4529148,50.0059466 21.1357876,50.4362462 C21.3598841,50.3588053 21.5807434,50.2720238 21.7980177,50.1760754 L23.3737419,49.4802353 L22.4154885,50.911616 C21.8264937,51.7914208 21.0917855,52.569642 20.2492525,53.2057683 Z" fill="#181137" fill-rule="evenodd"></path>
                    </g>
                </g>
            </g>
        </g>
    </g>
</svg>